<svg xmlns="http://www.w3.org/2000/svg" width="600" height="400" viewBox="0 0 600 400" role="img" aria-labelledby="title desc">
  <title id="title">Campus greens</title>
  <desc id="desc">Illustration of a green campus quad</desc>
  <defs>
    <linearGradient id="sky" x1="0%" y1="0%" x2="0%" y2="100%">
      <stop offset="0%" stop-color="#d6ecff" />
      <stop offset="100%" stop-color="#f6fcff" />
    </linearGradient>
    <linearGradient id="grass" x1="0%" y1="0%" x2="100%" y2="0%">
      <stop offset="0%" stop-color="#15aabf" />
      <stop offset="100%" stop-color="#0b5ed7" />
    </linearGradient>
  </defs>
  <rect width="600" height="400" rx="24" fill="url(#sky)" />
  <path d="M0 260 Q140 220 240 250 T480 230 Q560 240 600 210 V400 H0 Z" fill="url(#grass)" opacity="0.4" />
  <circle cx="120" cy="180" r="40" fill="#0b5ed7" opacity="0.3" />
  <circle cx="200" cy="160" r="30" fill="#0b5ed7" opacity="0.25" />
  <rect x="320" y="150" width="140" height="120" rx="18" fill="#ffffff" stroke="#0b5ed7" stroke-width="8" stroke-opacity="0.15" />
  <rect x="340" y="170" width="40" height="80" fill="#0b5ed7" opacity="0.6" />
  <rect x="400" y="170" width="40" height="80" fill="#0b5ed7" opacity="0.6" />
  <circle cx="500" cy="140" r="24" fill="#15aabf" opacity="0.3" />
  <path d="M60 280 Q120 240 180 280 T300 290 T420 270 L540 310" fill="none" stroke="#0b5ed7" stroke-width="6" stroke-linecap="round" stroke-linejoin="round" opacity="0.35" />
</svg>
